<?xml version="1.0" encoding="utf-8"?>
<!-- Generator: Adobe Illustrator 22.0.1, SVG Export Plug-In . SVG Version: 6.00 Build 0)  -->
<svg version="1.1" id="Layer_1" xmlns="http://www.w3.org/2000/svg" xmlns:xlink="http://www.w3.org/1999/xlink" x="0px" y="0px"
	 viewBox="0 0 440.3 175.9" style="enable-background:new 0 0 440.3 175.9;" xml:space="preserve">
<style type="text/css">
	.st0{fill:#FFFFFF;}
</style>
<g>
	<path class="st0" d="M108.3,130.7c-2.3,4.3-5.3,7.9-8.9,10.8c-3.6,2.9-7.8,5.1-12.4,6.7c-4.7,1.5-9.7,2.3-15.1,2.3
		c-6.4,0-12.2-1.1-17.5-3.2c-5.3-2.2-9.9-5.2-13.8-9.1c-3.9-3.9-6.9-8.5-9.1-13.8c-2.2-5.3-3.3-11.1-3.3-17.5
		c0-6.4,1.1-12.3,3.3-17.8c2.2-5.5,5.2-10.2,9.1-14.1c3.9-3.9,8.5-7.1,13.9-9.3c5.4-2.3,11.4-3.4,17.9-3.4c5.1,0,9.9,0.7,14.6,2
		c4.6,1.3,8.8,3.4,12.5,6.1c3.7,2.7,6.7,6.1,9,10.1c2.3,4.1,3.8,8.8,4.3,14.2l-23.7,0c-0.5-4.5-2.3-8-5.2-10.5
		c-2.9-2.4-6.6-3.6-11-3.6c-3.9,0-7.1,0.8-9.6,2.3c-2.5,1.5-4.5,3.5-6,6c-1.5,2.5-2.5,5.3-3.1,8.4c-0.6,3.1-0.9,6.3-0.9,9.6
		c0,3.1,0.3,6.2,0.9,9.2c0.6,3,1.6,5.7,3.1,8.1c1.5,2.4,3.4,4.3,5.8,5.8c2.4,1.5,5.5,2.2,9.3,2.2c4.6,0,8.5-1.5,11.5-4.6
		c3-3.1,4.8-6.9,5.2-11.4l23.7,0C112.1,121.6,110.6,126.5,108.3,130.7z"/>
	<path class="st0" d="M169.5,82.4c-3.1,0-5.8,0.6-7.9,1.7c-2.2,1.1-3.9,2.7-5.3,4.6c-1.4,1.9-2.3,4.2-3,6.7c-0.6,2.5-1,5.2-1,7.8
		l0,45l-25,0l-0.1-83.9l24.8,0l0,12c3.3-5.1,7.3-8.8,11.7-10.9c4.5-2.1,9.8-3.2,15.8-3.2c0.9,0,1.7,0,2.5,0c0.8,0,1.6,0.1,2.5,0.3
		L169.5,82.4z"/>
	<path class="st0" d="M256.2,130.6c-2.3,4.3-5.3,7.9-8.9,10.8c-3.6,2.9-7.8,5.1-12.4,6.7c-4.6,1.5-9.7,2.3-15.1,2.3
		c-6.4,0-12.2-1.1-17.5-3.2c-5.3-2.2-9.9-5.2-13.7-9.1c-3.8-3.9-6.8-8.5-9-13.8c-2.2-5.3-3.3-11.1-3.3-17.5c0-6.4,1.1-12.3,3.2-17.8
		c2.2-5.5,5.2-10.2,9-14.1c3.8-3.9,8.5-7.1,13.9-9.3c5.4-2.3,11.4-3.4,17.8-3.4c5.1,0,9.9,0.7,14.6,2c4.6,1.3,8.8,3.4,12.5,6.1
		c3.7,2.7,6.7,6.1,9,10.1c2.3,4.1,3.8,8.8,4.3,14.2L202.1,116c0.9,4.5,2.7,8.4,5.6,11.4c2.9,3.1,7.1,4.6,12.6,4.6
		c4.6,0,8.5-1.5,11.5-4.6c3-3.1,4.8-6.9,5.2-11.4l23.7,0C260.1,121.5,258.6,126.4,256.2,130.6z M229.5,82.7
		c-2.5-1.5-5.4-2.3-8.8-2.3c-3.1,0-5.8,0.5-8.1,1.6c-2.3,1.1-4.2,2.5-5.8,4.3c-1.6,1.8-2.8,3.9-3.6,6.2c-0.8,2.4-1.3,4.9-1.5,7.5
		c0,0.2,0,0.5-0.1,0.7c-0.1,0.3-0.1,0.5-0.1,0.7l33.4-12.4C233.9,86.4,232,84.2,229.5,82.7z"/>
	<path class="st0" d="M299.9,41.8c0,2.1-0.4,3.9-1.3,5.5c-0.9,1.6-2,3-3.5,4.1c-1.5,1.1-3.1,2-4.9,2.6c-1.8,0.6-3.7,0.9-5.5,0.9
		c-1.8,0-3.7-0.3-5.5-0.9c-1.8-0.6-3.5-1.5-4.9-2.6c-1.5-1.1-2.6-2.5-3.5-4.1c-0.9-1.6-1.3-3.5-1.3-5.5c0-1.9,0.4-3.7,1.3-5.4
		c0.9-1.6,2-3,3.5-4.1c1.5-1.1,3.1-2,4.9-2.7c1.8-0.7,3.7-1,5.5-1c1.8,0,3.7,0.3,5.5,1c1.8,0.6,3.5,1.5,4.9,2.7
		c1.5,1.1,2.6,2.5,3.5,4.1C299.4,38.1,299.9,39.9,299.9,41.8z"/>
	<path class="st0" d="M355.4,41.8c0,2.1-0.4,3.9-1.3,5.5c-0.9,1.6-2,3-3.5,4.1c-1.5,1.1-3.1,2-4.9,2.6c-1.8,0.6-3.7,0.9-5.5,0.9
		c-1.8,0-3.7-0.3-5.5-0.9c-1.8-0.6-3.5-1.5-4.9-2.6c-1.5-1.1-2.6-2.5-3.5-4.1c-0.9-1.6-1.3-3.5-1.3-5.5c0-1.9,0.4-3.7,1.3-5.4
		c0.9-1.6,2-3,3.5-4.1c1.5-1.1,3.1-2,4.9-2.7c1.8-0.7,3.7-1,5.5-1c1.8,0,3.7,0.3,5.5,1c1.8,0.6,3.5,1.5,4.9,2.7
		c1.5,1.1,2.6,2.5,3.5,4.1C355,38,355.4,39.8,355.4,41.8z"/>
	<path class="st0" d="M412.6,41.7c0,2.1-0.4,3.9-1.3,5.5c-0.9,1.6-2,3-3.5,4.1c-1.5,1.1-3.1,2-4.9,2.6c-1.8,0.6-3.7,0.9-5.5,0.9
		c-1.8,0-3.7-0.3-5.5-0.9c-1.8-0.6-3.5-1.5-4.9-2.6c-1.5-1.1-2.6-2.5-3.5-4.1c-0.9-1.6-1.3-3.5-1.3-5.5c0-1.9,0.4-3.7,1.3-5.4
		c0.9-1.6,2-3,3.5-4.1c1.5-1.1,3.1-2,4.9-2.7c1.8-0.7,3.7-1,5.5-1c1.8,0,3.7,0.3,5.5,1c1.8,0.6,3.5,1.5,4.9,2.7
		c1.5,1.1,2.6,2.5,3.5,4.1C412.2,38,412.6,39.8,412.6,41.7z"/>
	<path class="st0" d="M385.9,148.1l0-12c-3.2,5.1-7.1,8.7-11.7,10.9c-4.5,2.2-9.8,3.3-15.9,3.3c-6.8,0-12.6-1.6-17.3-4.8
		c-4.7-3.2-8-7.6-9.8-13.4c-2.7,6.5-6.5,11.1-11.4,14c-4.9,2.8-10.9,4.2-18.1,4.2c-4.4,0-8.4-0.7-12-2c-3.6-1.3-6.6-3.3-9.1-5.8
		c-2.5-2.5-4.4-5.6-5.8-9.1c-1.4-3.5-2.1-7.5-2.1-11.9l0-57.3l25,0l0,46.9c0,2.5,0.2,4.9,0.6,7.2c0.4,2.3,1.2,4.4,2.3,6.2
		c1.1,1.8,2.6,3.2,4.4,4.2c1.9,1,4.3,1.5,7.2,1.5c3,0,5.6-0.6,7.8-1.7c2.2-1.1,4-2.7,5.3-4.6c1.3-1.9,2.3-4.2,3-6.7
		c0.6-2.5,1-5.1,1-7.8l0-45.3l25,0l0,46.9c0,2.5,0.2,4.9,0.7,7.2c0.4,2.3,1.2,4.4,2.3,6.2c1.1,1.8,2.6,3.2,4.4,4.2
		c1.9,1,4.3,1.5,7.2,1.5c3,0,5.6-0.6,7.8-1.7c2.2-1.1,4-2.7,5.3-4.6c1.3-1.9,2.3-4.2,3-6.7c0.6-2.5,1-5.1,1-7.8l0-45.3l25,0l0.1,84
		L385.9,148.1z"/>
</g>
</svg>
