<svg id="Camada_1" data-name="Camada 1" xmlns="http://www.w3.org/2000/svg" viewBox="0 0 704.39 120.35"><defs><style>.cls-1{fill:#de2927;}.cls-2{fill:#000100;}</style></defs><title>Prancheta 3lel</title><rect class="cls-1" width="120.35" height="120.35"/><polygon class="cls-2" points="156.23 17.87 188.27 94.64 188.63 94.64 220.78 17.87 230.24 17.87 230.24 105.06 223.12 105.06 223.12 66.56 223.72 28.41 223.36 28.29 190.96 105.06 185.99 105.06 153.66 28.65 153.3 28.71 153.96 66.56 153.96 105.06 146.83 105.06 146.83 17.87 156.23 17.87"/><path class="cls-2" d="M263.48,74.34h35.21L281.32,27.15H281ZM301,80.75H261.08l-9,24.31h-7.42l33.11-87.19h6.77l32.87,87.19H310Z"/><polygon class="cls-2" points="463.6 66.5 423.84 66.5 423.84 105.06 412.04 105.06 412.04 17.87 469.71 17.87 469.71 27.15 423.84 27.15 423.84 57.22 463.6 57.22 463.6 66.5"/><polygon class="cls-2" points="704.39 27.15 676.36 27.15 676.36 105.06 664.57 105.06 664.57 27.15 636.6 27.15 636.6 17.87 704.39 17.87 704.39 27.15"/><path class="cls-2" d="M386.66,54.33q0-14.16-7.16-22.79T359.65,22.9q-12.47,0-19.4,8.64T333.3,54.33V68.66q0,14.28,7,22.91t19.43,8.64q12.75,0,19.85-8.6t7.1-23Zm7.12,14.26a46,46,0,0,1-3.26,17.7,32.28,32.28,0,0,1-9.31,12.84l15,14.13-5,4.5L375.4,102.85a33.64,33.64,0,0,1-7.46,2.6,37.89,37.89,0,0,1-8.23.87q-15.33,0-24.46-10.42t-9.13-27.31V54.4q0-16.83,9.1-27.31t24.43-10.48q15.57,0,24.85,10.48t9.28,27.31Z"/><path class="cls-2" d="M537.68,53.62q0-12-6.47-19.64t-17.37-7.67A20,20,0,0,0,497.41,34q-6.15,7.67-6.14,19.64V69.25q0,12.1,6.14,19.76a20,20,0,0,0,16.43,7.67q11,0,17.4-7.64t6.44-19.79Zm11.79,15.63q0,16-9.91,26.53t-25.72,10.54q-15.27,0-24.82-10.54t-9.55-26.53V53.74q0-15.93,9.55-26.53t24.82-10.59q15.81,0,25.72,10.56t9.91,26.56Z"/><path class="cls-2" d="M578.87,58h18.57q10,0,14.4-3.79t4.4-11.57q0-7.35-4.28-11.38c-2.85-2.69-7.3-4-13.32-4H578.87Zm0,9.28v37.79H567.08V17.93h31.56q14.31,0,21.85,6.35T628,42.72a19.73,19.73,0,0,1-3.51,11.68,23.65,23.65,0,0,1-10.2,7.9q7.17,2.34,10.33,7.58a24.83,24.83,0,0,1,3.14,13v8.21a27.22,27.22,0,0,0,.9,7.3,10.93,10.93,0,0,0,3.11,5.27v1.44H619.65a9.79,9.79,0,0,1-3-6,49.32,49.32,0,0,1-.66-8.14V83q0-7.06-4.13-11.37t-11.08-4.32Z"/></svg>