<?xml version="1.0" encoding="utf-8"?>
<!-- Generator: Adobe Illustrator 21.1.0, SVG Export Plug-In . SVG Version: 6.00 Build 0)  -->
<svg version="1.1" id="Capa_1" xmlns="http://www.w3.org/2000/svg" xmlns:xlink="http://www.w3.org/1999/xlink" x="0px" y="0px"
	 viewBox="0 0 512 512" style="enable-background:new 0 0 512 512;" xml:space="preserve">
<style type="text/css">
	.st0{fill:#141313;}
</style>
<g>
	<g>
		<polygon class="st0" points="47.9,7.6 47.9,55.9 69,49.3 69,28.7 490.9,28.7 490.9,297.6 155.2,297.6 154.1,318.7 512,318.7 
			512,7.6 		"/>
		<g>
			<circle class="st0" cx="81.5" cy="123.1" r="62.5"/>
			<polygon class="st0" points="134.5,475.9 134.5,364.7 134.5,354.2 134.5,340 138.5,340 144.3,227 252.1,171.2 237.9,143.9 
				139.4,194.9 104.2,194.9 80.4,222.6 57.4,194.9 6.7,204.1 3.5,316.6 25,316.6 26.1,340 29.4,340 29.4,354.2 29.4,364.7 
				29.4,475.9 25.1,475.9 0,481.4 0,504.4 21.4,504.4 46.3,500.4 46.5,504.4 74.1,504.4 74.1,478.7 74.1,475.9 74.1,364.7 
				89.8,364.7 89.8,475.9 89.8,478.7 89.8,504.4 117.4,504.4 117.6,500.4 142.6,504.4 163.9,504.4 163.9,481.4 138.8,475.9 			"/>
		</g>
		<rect x="180.5" y="102" class="st0" width="270.2" height="7.9"/>
		<rect x="180.5" y="74.3" class="st0" width="270.2" height="7.9"/>
		<rect x="180.5" y="129" class="st0" width="270.2" height="7.9"/>
		<polygon class="st0" points="450.7,154.7 254,154.7 258.1,162.6 450.7,162.6 		"/>
		<polygon class="st0" points="235.9,189.6 450.7,189.6 450.7,181.7 252.2,181.7 		"/>
		<polygon class="st0" points="180.5,216.7 180.5,217.1 450.7,217.1 450.7,209.2 194,209.2 		"/>
		<rect x="387.8" y="247.6" class="st0" width="82.6" height="30.7"/>
	</g>
</g>
</svg>
